<?xml version="1.0" encoding="UTF-8" standalone="no"?>
<svg
   width="137.64902"
   height="42.277912"
   viewBox="0 0 137.64902 42.277913"
   version="1.1"
   id="svg1"
   sodipodi:docname="OpenSeesLogoRT.svg"
   inkscape:version="1.4 (e7c3feb1, 2024-10-09)"
   xmlns:inkscape="http://www.inkscape.org/namespaces/inkscape"
   xmlns:sodipodi="http://sodipodi.sourceforge.net/DTD/sodipodi-0.dtd"
   xmlns="http://www.w3.org/2000/svg"
   xmlns:svg="http://www.w3.org/2000/svg">
  <defs
     id="defs1" />
  <sodipodi:namedview
     id="namedview1"
     pagecolor="#ffffff"
     bordercolor="#000000"
     borderopacity="0.25"
     inkscape:showpageshadow="2"
     inkscape:pageopacity="0.0"
     inkscape:pagecheckerboard="0"
     inkscape:deskcolor="#d1d1d1"
     inkscape:zoom="2.034159"
     inkscape:cx="66.12069"
     inkscape:cy="20.647353"
     inkscape:window-width="1104"
     inkscape:window-height="667"
     inkscape:window-x="0"
     inkscape:window-y="25"
     inkscape:window-maximized="0"
     inkscape:current-layer="svg1" />
  <g
     id="svgGroup"
     stroke-linecap="round"
     fill-rule="evenodd"
     font-size="12px"
     stroke="#000"
     stroke-width="0.25mm"
     fill="#000"
     style="fill:#000000;stroke:#000000;stroke-width:0.25mm"
     transform="translate(9.8320732,14.256506)">
    <path
       d="M 59.5,1.7 59.24,1.98 A 6.227,6.227 0 0 0 58.771,1.516 4.885,4.885 0 0 0 58.39,1.21 Q 57.96,0.9 57.49,0.72 A 4.747,4.747 0 0 0 56.573,0.473 5.277,5.277 0 0 0 56.49,0.46 q -0.53,-0.08 -1.17,-0.08 -2.42,0 -3.51,0.93 -1.09,0.93 -1.09,2.47 0,1.02 0.46,1.61 a 2.338,2.338 0 0 0 0.526,0.486 q 0.251,0.172 0.571,0.314 a 4.889,4.889 0 0 0 0.353,0.14 q 0.665,0.235 1.597,0.457 A 29.615,29.615 0 0 0 55.2,7 25.699,25.699 0 0 1 56.502,7.297 q 0.589,0.152 1.104,0.32 A 14.331,14.331 0 0 1 57.94,7.73 q 1.16,0.41 1.79,1.12 a 2.36,2.36 0 0 1 0.5,0.937 q 0.102,0.359 0.124,0.788 A 4.723,4.723 0 0 1 60.36,10.82 3.711,3.711 0 0 1 60.266,11.674 3.02,3.02 0 0 1 60.02,12.35 3.002,3.002 0 0 1 59.033,13.468 3.555,3.555 0 0 1 59.03,13.47 4.314,4.314 0 0 1 58.217,13.907 5.825,5.825 0 0 1 57.45,14.16 7.365,7.365 0 0 1 56.364,14.351 9.806,9.806 0 0 1 55.36,14.4 q -1.14,0 -2.11,-0.24 -0.97,-0.24 -1.81,-0.73 a 8.06,8.06 0 0 1 -1.3,-0.95 9.28,9.28 0 0 1 -0.3,-0.28 l 0.3,-0.26 q 0.54,0.56 1.12,0.96 0.58,0.4 1.23,0.66 0.65,0.26 1.37,0.38 0.72,0.12 1.52,0.12 1.475,0 2.519,-0.387 A 4.19,4.19 0 0 0 58.73,13.26 q 1.23,-0.8 1.23,-2.38 0,-0.885 -0.348,-1.484 A 2.109,2.109 0 0 0 59.46,9.17 2.718,2.718 0 0 0 58.876,8.618 Q 58.472,8.33 57.91,8.11 57.147,7.812 56.073,7.562 A 24.08,24.08 0 0 0 55.22,7.38 Q 54.026,7.15 53.101,6.88 A 14.303,14.303 0 0 1 52.56,6.71 4.895,4.895 0 0 1 51.81,6.39 Q 51.405,6.174 51.107,5.896 A 2.694,2.694 0 0 1 50.89,5.67 2.246,2.246 0 0 1 50.447,4.822 Q 50.352,4.489 50.328,4.092 A 4.527,4.527 0 0 1 50.32,3.82 4.177,4.177 0 0 1 50.433,2.827 3.138,3.138 0 0 1 50.93,1.73 3.522,3.522 0 0 1 52.07,0.72 4.576,4.576 0 0 1 52.66,0.44 Q 53.78,0 55.28,0 a 8.293,8.293 0 0 1 0.964,0.054 6.547,6.547 0 0 1 0.686,0.116 q 0.75,0.17 1.38,0.54 A 4.739,4.739 0 0 1 59.107,1.303 5.852,5.852 0 0 1 59.5,1.7 Z m 36.44,12.6 h -0.4 V 0.1 h 5.78 a 3.638,3.638 0 0 1 1.139,0.175 3.337,3.337 0 0 1 0.471,0.195 q 0.73,0.37 1.26,0.99 0.53,0.62 0.83,1.38 0.3,0.76 0.3,1.56 0,1.1 -0.46,2.05 -0.46,0.95 -1.27,1.57 -0.81,0.62 -1.89,0.7 l 3.6,5.58 h -0.48 l -3.6,-5.58 H 95.94 Z M 47.5,8.52 V 14.3 H 47.1 V 8.52 A 12.928,12.928 0 0 0 47.053,7.375 Q 46.928,5.973 46.47,5.21 A 2.065,2.065 0 0 0 44.977,4.203 3.176,3.176 0 0 0 44.44,4.16 4.333,4.333 0 0 0 42.557,4.598 5.026,5.026 0 0 0 42.49,4.63 q -0.95,0.47 -1.65,1.28 -0.7,0.81 -1,1.83 v 6.56 h -0.4 V 3.92 h 0.4 V 6.6 Q 40.28,5.76 41,5.12 q 0.72,-0.64 1.61,-1 0.89,-0.36 1.81,-0.36 0.8,0 1.38,0.29 a 2.424,2.424 0 0 1 0.906,0.79 2.89,2.89 0 0 1 0.054,0.08 q 0.329,0.503 0.509,1.246 A 6.13,6.13 0 0 1 47.32,6.4 8.572,8.572 0 0 1 47.443,7.249 q 0.043,0.439 0.053,0.934 A 15.641,15.641 0 0 1 47.5,8.52 Z m 37.38,4.3 0.3,-0.26 a 6.278,6.278 0 0 0 0.873,0.716 4.977,4.977 0 0 0 0.807,0.444 4.626,4.626 0 0 0 1.298,0.341 5.808,5.808 0 0 0 0.682,0.039 5.803,5.803 0 0 0 1.032,-0.086 q 0.853,-0.155 1.468,-0.584 a 2.267,2.267 0 0 0 0.656,-0.684 Q 92.3,12.244 92.3,11.58 A 2.218,2.218 0 0 0 92.25,11.097 Q 92.156,10.672 91.88,10.39 91.46,9.96 90.65,9.69 A 14.955,14.955 0 0 0 89.993,9.489 Q 89.626,9.385 89.205,9.283 A 29.567,29.567 0 0 0 88.68,9.16 26.946,26.946 0 0 1 87.934,8.967 Q 87.354,8.806 86.91,8.65 86.34,8.45 86.003,8.127 A 1.658,1.658 0 0 1 85.85,7.96 1.449,1.449 0 0 1 85.608,7.493 Q 85.5,7.155 85.5,6.7 85.5,5.784 85.896,5.178 A 2.072,2.072 0 0 1 86.01,5.02 2.971,2.971 0 0 1 87.148,4.153 3.59,3.59 0 0 1 87.35,4.07 4.954,4.954 0 0 1 88.724,3.776 5.893,5.893 0 0 1 89.16,3.76 6.194,6.194 0 0 1 90.123,3.831 q 0.545,0.086 1.002,0.276 a 3.651,3.651 0 0 1 0.185,0.083 3.704,3.704 0 0 1 0.547,0.321 q 0.287,0.206 0.482,0.447 A 1.896,1.896 0 0 1 92.54,5.26 L 92.18,5.42 Q 91.812,4.82 90.995,4.501 A 3.687,3.687 0 0 0 90.94,4.48 5.168,5.168 0 0 0 89.42,4.17 6.035,6.035 0 0 0 89.08,4.16 4.963,4.963 0 0 0 88.084,4.257 4.186,4.186 0 0 0 87.5,4.42 2.789,2.789 0 0 0 86.77,4.808 2.436,2.436 0 0 0 86.34,5.22 1.885,1.885 0 0 0 85.973,5.981 Q 85.906,6.259 85.901,6.585 A 3.455,3.455 0 0 0 85.9,6.64 q 0,0.48 0.15,0.811 A 1.196,1.196 0 0 0 86.2,7.7 1.557,1.557 0 0 0 86.559,8.026 q 0.17,0.114 0.385,0.206 A 3.09,3.09 0 0 0 87.12,8.3 11.789,11.789 0 0 0 87.61,8.461 q 0.475,0.145 1.09,0.299 a 29.509,29.509 0 0 1 0.882,0.213 q 0.435,0.112 0.818,0.228 a 15.965,15.965 0 0 1 0.44,0.139 q 0.695,0.232 1.14,0.577 a 2.368,2.368 0 0 1 0.24,0.213 1.595,1.595 0 0 1 0.393,0.698 q 0.071,0.251 0.084,0.551 A 3.197,3.197 0 0 1 92.7,11.52 q 0,1.336 -1.023,2.142 A 3.26,3.26 0 0 1 91.64,13.69 q -0.969,0.741 -2.507,0.804 A 7.111,7.111 0 0 1 88.84,14.5 5.947,5.947 0 0 1 87.319,14.311 5.285,5.285 0 0 1 86.66,14.09 4.84,4.84 0 0 1 85.03,12.979 5.667,5.667 0 0 1 84.88,12.82 Z M 37.06,9.34 h -9.5 a 5.642,5.642 0 0 0 0.423,1.792 5.229,5.229 0 0 0 0.317,0.628 q 0.64,1.08 1.66,1.71 1.02,0.63 2.22,0.63 1.2,0 2.24,-0.61 A 4.019,4.019 0 0 0 35.263,12.841 3.233,3.233 0 0 0 35.9,11.92 l 0.38,0.1 q -0.28,0.7 -0.91,1.27 a 4.601,4.601 0 0 1 -1.418,0.87 5.206,5.206 0 0 1 -0.052,0.02 q -0.84,0.32 -1.74,0.32 -1.02,0 -1.93,-0.43 -0.91,-0.43 -1.6,-1.18 -0.69,-0.75 -1.08,-1.74 -0.39,-0.99 -0.39,-2.11 A 5.582,5.582 0 0 1 27.499,7.081 5.233,5.233 0 0 1 27.82,6.38 q 0.66,-1.2 1.77,-1.91 1.11,-0.71 2.47,-0.71 1.38,0 2.51,0.72 1.13,0.72 1.81,1.93 a 5.352,5.352 0 0 1 0.672,2.386 6.417,6.417 0 0 1 0.008,0.324 v 0.11 z m 34.86,0 h -9.5 a 5.642,5.642 0 0 0 0.423,1.792 5.229,5.229 0 0 0 0.317,0.628 q 0.64,1.08 1.66,1.71 1.02,0.63 2.22,0.63 1.2,0 2.24,-0.61 a 4.019,4.019 0 0 0 0.843,-0.649 3.233,3.233 0 0 0 0.637,-0.921 l 0.38,0.1 q -0.28,0.7 -0.91,1.27 a 4.601,4.601 0 0 1 -1.418,0.87 5.206,5.206 0 0 1 -0.052,0.02 Q 67.92,14.5 67.02,14.5 66,14.5 65.09,14.07 64.18,13.64 63.49,12.89 62.8,12.14 62.41,11.15 62.02,10.16 62.02,9.04 A 5.582,5.582 0 0 1 62.359,7.081 5.233,5.233 0 0 1 62.68,6.38 q 0.66,-1.2 1.77,-1.91 1.11,-0.71 2.47,-0.71 1.38,0 2.51,0.72 1.13,0.72 1.81,1.93 a 5.352,5.352 0 0 1 0.672,2.386 6.417,6.417 0 0 1 0.008,0.324 v 0.11 z m 11.52,0 h -9.5 a 5.642,5.642 0 0 0 0.423,1.792 5.229,5.229 0 0 0 0.317,0.628 q 0.64,1.08 1.66,1.71 1.02,0.63 2.22,0.63 1.2,0 2.24,-0.61 a 4.019,4.019 0 0 0 0.843,-0.649 3.233,3.233 0 0 0 0.637,-0.921 l 0.38,0.1 q -0.28,0.7 -0.91,1.27 a 4.601,4.601 0 0 1 -1.418,0.87 5.206,5.206 0 0 1 -0.052,0.02 q -0.84,0.32 -1.74,0.32 -1.02,0 -1.93,-0.43 -0.91,-0.43 -1.6,-1.18 -0.69,-0.75 -1.08,-1.74 -0.39,-0.99 -0.39,-2.11 A 5.582,5.582 0 0 1 73.879,7.081 5.233,5.233 0 0 1 74.2,6.38 q 0.66,-1.2 1.77,-1.91 1.11,-0.71 2.47,-0.71 1.38,0 2.51,0.72 1.13,0.72 1.81,1.93 a 5.352,5.352 0 0 1 0.672,2.386 6.417,6.417 0 0 1 0.008,0.324 v 0.11 z m 34.6,-9.24 v 0.4 h -5.44 v 13.8 h -0.4 V 0.5 h -5.44 V 0.1 Z M 16.26,11.92 v 6.64 h -0.4 V 3.92 h 0.4 v 2.2 q 0.66,-1.04 1.77,-1.7 A 4.723,4.723 0 0 1 19.355,3.873 4.164,4.164 0 0 1 20.32,3.76 q 1.1,0 2.01,0.46 0.91,0.46 1.58,1.23 0.67,0.77 1.04,1.73 0.37,0.96 0.37,1.96 0,1.42 -0.6,2.64 -0.6,1.22 -1.68,1.97 A 4.2,4.2 0 0 1 21.012,14.476 5.315,5.315 0 0 1 20.5,14.5 q -1.38,0 -2.47,-0.77 A 6.877,6.877 0 0 1 16.601,12.393 6.311,6.311 0 0 1 16.26,11.92 Z M 4.645,14.085 A 6.085,6.085 0 0 0 6.62,14.4 q 1.4,0 2.6,-0.58 1.2,-0.58 2.1,-1.59 0.9,-1.01 1.4,-2.3 0.5,-1.29 0.5,-2.73 0,-1.32 -0.48,-2.6 Q 12.26,3.32 11.39,2.28 10.52,1.24 9.31,0.62 A 5.462,5.462 0 0 0 8.406,0.255 6.11,6.11 0 0 0 6.62,0 Q 5.22,0 4.01,0.59 2.8,1.18 1.9,2.19 1,3.2 0.5,4.49 0,5.78 0,7.2 q 0,1.36 0.48,2.65 0.48,1.29 1.36,2.31 0.88,1.02 2.1,1.63 a 5.642,5.642 0 0 0 0.705,0.295 z M 0.4,7.2 q 0,1.32 0.46,2.54 0.46,1.22 1.3,2.18 Q 3,12.88 4.14,13.44 5.28,14 6.62,14 A 5.693,5.693 0 0 0 8.385,13.732 5.189,5.189 0 0 0 9.14,13.42 q 1.14,-0.58 1.96,-1.56 0.82,-0.98 1.27,-2.19 0.45,-1.21 0.45,-2.47 0,-1.32 -0.47,-2.54 Q 11.88,3.44 11.04,2.48 10.2,1.52 9.07,0.96 7.94,0.4 6.62,0.4 A 5.706,5.706 0 0 0 4.755,0.7 5.285,5.285 0 0 0 4.09,0.98 Q 2.94,1.56 2.12,2.54 1.3,3.52 0.85,4.73 0.4,5.94 0.4,7.2 Z M 95.94,0.5 v 7.82 h 5.52 a 3.415,3.415 0 0 0 0.959,-0.129 2.803,2.803 0 0 0 0.891,-0.441 q 0.77,-0.57 1.19,-1.47 0.42,-0.9 0.42,-1.88 0,-1.02 -0.48,-1.91 Q 103.96,1.6 103.14,1.05 102.32,0.5 101.32,0.5 Z M 16.26,7.34 v 3.74 q 0.38,0.84 1.02,1.52 0.64,0.68 1.47,1.09 0.83,0.41 1.75,0.41 a 4.252,4.252 0 0 0 1.081,-0.133 3.607,3.607 0 0 0 0.749,-0.287 q 0.81,-0.42 1.39,-1.14 0.58,-0.72 0.89,-1.6 0.31,-0.88 0.31,-1.8 0,-0.98 -0.35,-1.87 Q 24.22,6.38 23.58,5.68 22.94,4.98 22.11,4.57 21.28,4.16 20.32,4.16 A 3.178,3.178 0 0 0 19.657,4.234 4.361,4.361 0 0 0 19.03,4.42 Q 18.34,4.68 17.72,5.13 A 4.565,4.565 0 0 0 16.979,5.797 3.993,3.993 0 0 0 16.7,6.15 2.542,2.542 0 0 0 16.378,6.765 2.136,2.136 0 0 0 16.26,7.34 Z m 11.3,1.6 h 9.08 A 6.048,6.048 0 0 0 36.403,7.546 4.997,4.997 0 0 0 35.94,6.47 Q 35.32,5.4 34.32,4.78 q -1,-0.62 -2.24,-0.62 -1.22,0 -2.22,0.62 A 4.638,4.638 0 0 0 28.269,6.447 5.416,5.416 0 0 0 28.25,6.48 5.374,5.374 0 0 0 27.624,8.33 6.565,6.565 0 0 0 27.56,8.94 Z m 34.86,0 H 71.5 A 6.048,6.048 0 0 0 71.263,7.546 4.997,4.997 0 0 0 70.8,6.47 Q 70.18,5.4 69.18,4.78 q -1,-0.62 -2.24,-0.62 -1.22,0 -2.22,0.62 A 4.638,4.638 0 0 0 63.129,6.447 5.416,5.416 0 0 0 63.11,6.48 5.374,5.374 0 0 0 62.484,8.33 6.565,6.565 0 0 0 62.42,8.94 Z m 11.52,0 h 9.08 A 6.048,6.048 0 0 0 82.783,7.546 4.997,4.997 0 0 0 82.32,6.47 Q 81.7,5.4 80.7,4.78 q -1,-0.62 -2.24,-0.62 -1.22,0 -2.22,0.62 A 4.638,4.638 0 0 0 74.649,6.447 5.416,5.416 0 0 0 74.63,6.48 5.374,5.374 0 0 0 74.004,8.33 6.565,6.565 0 0 0 73.94,8.94 Z"
       vector-effect="non-scaling-stroke"
       id="path1" />
  </g>
</svg>
